<?xml version="1.0" encoding="UTF-8" standalone="no"?>
<svg
   xmlns:dc="http://purl.org/dc/elements/1.1/"
   xmlns:cc="http://creativecommons.org/ns#"
   xmlns:rdf="http://www.w3.org/1999/02/22-rdf-syntax-ns#"
   xmlns:svg="http://www.w3.org/2000/svg"
   xmlns="http://www.w3.org/2000/svg"
   xmlns:sodipodi="http://sodipodi.sourceforge.net/DTD/sodipodi-0.dtd"
   xmlns:inkscape="http://www.inkscape.org/namespaces/inkscape"
   inkscape:version="1.0 (4035a4f, 2020-05-01)"
   sodipodi:docname="duck_love.svg"
   height="53.98mm"
   width="85.599998mm"
   y="0px"
   x="0px"
   version="1.1"
   viewBox="0 0 323.52758 204.0189"
   id="master-artboard">
  <metadata
     id="metadata3084">
    <rdf:RDF>
      <cc:Work
         rdf:about="">
        <dc:format>image/svg+xml</dc:format>
        <dc:type
           rdf:resource="http://purl.org/dc/dcmitype/StillImage" />
        <dc:title />
      </cc:Work>
    </rdf:RDF>
  </metadata>
  <defs
     id="defs3082" />
  <sodipodi:namedview
     inkscape:current-layer="master-artboard"
     inkscape:window-maximized="0"
     inkscape:window-y="332"
     inkscape:window-x="613"
     inkscape:cy="111.16031"
     inkscape:cx="129.62225"
     inkscape:zoom="1.1112979"
     width="296mm"
     units="mm"
     showgrid="false"
     id="namedview3080"
     inkscape:window-height="444"
     inkscape:window-width="827"
     inkscape:pageshadow="2"
     inkscape:pageopacity="0"
     guidetolerance="10"
     gridtolerance="10"
     objecttolerance="10"
     borderopacity="1"
     bordercolor="#666666"
     pagecolor="#ffffff"
     inkscape:document-rotation="0" />
  <g
     transform="translate(-17.898944,-41.525549)"
     id="g3069">
    <path
       id="path3047"
       style="fill:#ffc20e"
       d="m 248.9,182 c 0,25.5 -17.8,43.8 -76,43.8 -58.2,0 -76,-18.3 -76,-43.8 0,-33.3 27.2,-54.2 76,-54.2 48.8,0 76,21 76,54.2 z"
       class="st0" />
    <path
       id="path3049"
       style="fill:#ffd000"
       d="m 239,113.8 c 0,30.8 -28.4,46.5 -66.2,46.5 -37.8,0 -66.2,-15.7 -66.2,-46.5 0,-35.8 31.7,-59 66.2,-59 34.5,0.1 66.2,23.3 66.2,59 z"
       class="st1" />
    <g
       id="g3055">
      <path
         id="path3051"
         style="fill:#ffd000"
         d="m 255.3,169.9 c 2.3,13 -2.9,25 -9.6,26.2 -7,1.2 -11.6,-9.1 -13.9,-22.1 -2.3,-13 0.5,-20.5 7.5,-21.7 8.4,-1.5 13.9,5.8 16,17.6 z"
         class="st1" />
      <path
         id="path3053"
         style="fill:#ffd000"
         d="m 90.4,169.9 c -2.3,13 2.9,25 9.6,26.2 7,1.2 11.6,-9.1 13.9,-22.1 2.3,-13 -0.5,-20.5 -7.5,-21.7 -8.4,-1.5 -13.9,5.8 -16,17.6 z"
         class="st1" />
    </g>
    <g
       id="g3061">
      <path
         id="path3057"
         style="fill:#f7941e"
         d="m 172.9,140 c -19.3,0 -33.5,-16 -33.5,-20.4 0,-4.4 5.7,2.9 12.6,-2.7 6.8,-5.6 12.3,-13.5 20.9,-13.5 8.6,0 14.1,7.9 20.9,13.5 6.8,5.6 12.6,-1.6 12.6,2.7 0,4.3 -14.2,20.4 -33.5,20.4 z"
         class="st2" />
      <path
         id="path3059"
         style="fill:#f47920"
         d="m 172.9,136 c 14.9,0 29.8,-7.7 32.1,-16.5 0.2,-0.6 -5.6,6.1 -12.6,6.1 -7,0 -11.9,-3.9 -19.6,-3.9 -7.6,0 -12.6,3.9 -19.6,3.9 -7,0 -12.7,-6.7 -12.6,-6.1 2.5,8.9 17.4,16.5 32.3,16.5 z"
         class="st3" />
    </g>
    <g
       id="g3067">
      <path
         id="path3063"
         style="fill:#f47920"
         d="m 180.1,108.3 c 0.8,0.8 0.7,1.5 0.1,2.1 -0.5,0.5 -1.3,0.6 -2.1,-0.1 -0.8,-0.8 -0.7,-2.6 -0.7,-2.6 0,0 1.9,-0.1 2.7,0.6 z"
         class="st3" />
      <path
         id="path3065"
         style="fill:#f47920"
         d="m 167.5,110.2 c -0.8,0.8 -1.5,0.7 -2.1,0.1 -0.5,-0.5 -0.6,-1.3 0.1,-2.1 0.8,-0.8 2.6,-0.7 2.6,-0.7 0,0 0.2,2 -0.6,2.7 z"
         class="st3" />
    </g>
  </g>
  <path
     id="path290"
     style="fill:#ed1c24"
     d="m 135.0809,49.894703 c 0,-4.1 -3.3,-7.4 -7.4,-7.4 -4.1,0 -7.4,3.3 -7.4,7.3 0,-4.1 -3.3,-7.3 -7.4,-7.3 -4.1,0 -7.4,3.3 -7.4,7.4 0,10.9 14.7,19.3 14.7,19.3 0.2,0 14.9,-8.4 14.9,-19.3 z"
     class="st7" />
  <path
     class="st7"
     d="m 206.70916,49.184122 c 0,-4.1 -3.3,-7.4 -7.4,-7.4 -4.1,0 -7.4,3.3 -7.4,7.3 0,-4.1 -3.3,-7.3 -7.4,-7.3 -4.1,0 -7.4,3.3 -7.4,7.4 0,10.9 14.7,19.3 14.7,19.3 0.2,0 14.9,-8.4 14.9,-19.3 z"
     style="fill:#ed1c24"
     id="path290-7" />
  <path
     class="st6"
     d="m 171.99342,92.644821 c 0,-1.5 -1.2,-2.7 -2.7,-2.7 h -25.8 c -1.5,0 -2.7,1.2 -2.7,2.7 v 9.499999 c 0,8.6 7,15.6 15.6,15.6 8.6,0 15.6,-7 15.6,-15.6 z"
     style="fill:#d71920"
     id="path286" />
</svg>
