<?xml version="1.0" encoding="UTF-8" standalone="no"?>
<svg
   xmlns:dc="http://purl.org/dc/elements/1.1/"
   xmlns:cc="http://creativecommons.org/ns#"
   xmlns:rdf="http://www.w3.org/1999/02/22-rdf-syntax-ns#"
   xmlns:svg="http://www.w3.org/2000/svg"
   xmlns="http://www.w3.org/2000/svg"
   xmlns:sodipodi="http://sodipodi.sourceforge.net/DTD/sodipodi-0.dtd"
   xmlns:inkscape="http://www.inkscape.org/namespaces/inkscape"
   id="master-artboard"
   viewBox="0 0 323.52758 204.0189"
   version="1.1"
   x="0px"
   y="0px"
   width="85.599998mm"
   height="53.98mm"
   sodipodi:docname="duck_neutral copy.svg"
   inkscape:version="1.0 (4035a4f, 2020-05-01)">
  <metadata
     id="metadata3084">
    <rdf:RDF>
      <cc:Work
         rdf:about="">
        <dc:format>image/svg+xml</dc:format>
        <dc:type
           rdf:resource="http://purl.org/dc/dcmitype/StillImage" />
        <dc:title />
      </cc:Work>
    </rdf:RDF>
  </metadata>
  <defs
     id="defs3082" />
  <sodipodi:namedview
     inkscape:document-rotation="0"
     pagecolor="#ffffff"
     bordercolor="#666666"
     borderopacity="1"
     objecttolerance="10"
     gridtolerance="10"
     guidetolerance="10"
     inkscape:pageopacity="0"
     inkscape:pageshadow="2"
     inkscape:window-width="1440"
     inkscape:window-height="900"
     id="namedview3080"
     showgrid="false"
     units="mm"
     width="296mm"
     inkscape:zoom="1.200932"
     inkscape:cx="-1.7986335"
     inkscape:cy="253.47634"
     inkscape:window-x="0"
     inkscape:window-y="0"
     inkscape:window-maximized="0"
     inkscape:current-layer="master-artboard" />
  <g
     id="g3069"
     transform="translate(-17.898944,-41.525549)">
    <path
       class="st0"
       d="m 248.9,182 c 0,25.5 -17.8,43.8 -76,43.8 -58.2,0 -76,-18.3 -76,-43.8 0,-33.3 27.2,-54.2 76,-54.2 48.8,0 76,21 76,54.2 z"
       style="fill:#ffc20e"
       id="path3047" />
    <path
       class="st1"
       d="m 239,113.8 c 0,30.8 -28.4,46.5 -66.2,46.5 -37.8,0 -66.2,-15.7 -66.2,-46.5 0,-35.8 31.7,-59 66.2,-59 34.5,0.1 66.2,23.3 66.2,59 z"
       style="fill:#ffd000"
       id="path3049" />
    <g
       id="g3055">
      <path
         class="st1"
         d="m 255.3,169.9 c 2.3,13 -2.9,25 -9.6,26.2 -7,1.2 -11.6,-9.1 -13.9,-22.1 -2.3,-13 0.5,-20.5 7.5,-21.7 8.4,-1.5 13.9,5.8 16,17.6 z"
         style="fill:#ffd000"
         id="path3051" />
      <path
         class="st1"
         d="m 90.4,169.9 c -2.3,13 2.9,25 9.6,26.2 7,1.2 11.6,-9.1 13.9,-22.1 2.3,-13 -0.5,-20.5 -7.5,-21.7 -8.4,-1.5 -13.9,5.8 -16,17.6 z"
         style="fill:#ffd000"
         id="path3053" />
    </g>
    <g
       id="g3061">
      <path
         class="st2"
         d="m 172.9,140 c -19.3,0 -33.5,-16 -33.5,-20.4 0,-4.4 5.7,2.9 12.6,-2.7 6.8,-5.6 12.3,-13.5 20.9,-13.5 8.6,0 14.1,7.9 20.9,13.5 6.8,5.6 12.6,-1.6 12.6,2.7 0,4.3 -14.2,20.4 -33.5,20.4 z"
         style="fill:#f7941e"
         id="path3057" />
      <path
         class="st3"
         d="m 172.9,136 c 14.9,0 29.8,-7.7 32.1,-16.5 0.2,-0.6 -5.6,6.1 -12.6,6.1 -7,0 -11.9,-3.9 -19.6,-3.9 -7.6,0 -12.6,3.9 -19.6,3.9 -7,0 -12.7,-6.7 -12.6,-6.1 2.5,8.9 17.4,16.5 32.3,16.5 z"
         style="fill:#f47920"
         id="path3059" />
    </g>
    <g
       id="g3067">
      <path
         class="st3"
         d="m 180.1,108.3 c 0.8,0.8 0.7,1.5 0.1,2.1 -0.5,0.5 -1.3,0.6 -2.1,-0.1 -0.8,-0.8 -0.7,-2.6 -0.7,-2.6 0,0 1.9,-0.1 2.7,0.6 z"
         style="fill:#f47920"
         id="path3063" />
      <path
         class="st3"
         d="m 167.5,110.2 c -0.8,0.8 -1.5,0.7 -2.1,0.1 -0.5,-0.5 -0.6,-1.3 0.1,-2.1 0.8,-0.8 2.6,-0.7 2.6,-0.7 0,0 0.2,2 -0.6,2.7 z"
         style="fill:#f47920"
         id="path3065" />
    </g>
  </g>
  <g
     id="g3077"
     transform="translate(-17.898944,-41.525549)">
    <g
       id="g3075">
      <path
         class="st4"
         d="m 147.7,98.1 c 0,-5.4 -4.4,-9.7 -9.7,-9.7 -5.4,0 -9.7,4.4 -9.7,9.7 0,5.4 4.4,9.7 9.7,9.7 5.4,0.1 9.7,-4.3 9.7,-9.7 z"
         style="fill:#69502f"
         id="path3071" />
      <path
         class="st4"
         d="m 219.3,98.1 c 0,-5.4 -4.4,-9.7 -9.7,-9.7 -5.4,0 -9.7,4.4 -9.7,9.7 0,5.4 4.4,9.7 9.7,9.7 5.4,0.1 9.7,-4.3 9.7,-9.7 z"
         style="fill:#69502f"
         id="path3073" />
    </g>
  </g>
  <path
     class="st2"
     d="m 155.00106,98.474451 c -19.3,0 -33.5,-8.199999 -33.5,-12.599999 0,-4.4 5.7,-4.5 12.6,-10.1 6.8,-5.6 12.3,-13.9 20.9,-13.9 8.6,0 14.1,8.3 20.9,13.9 6.8,5.6 12.6,5.7 12.6,10.1 0,4.4 -14.2,12.599999 -33.5,12.599999 z"
     style="fill:#f7941e"
     id="path3952" />
  <path
     class="st3"
     d="m 155.00106,81.474452 c -7.6,0 -13,1.6 -19.6,3.9 -4.7,1.6 -12.6,-0.3 -12.6,0.3 0,1.7 8.6,2.5 14.4,1 5.7,-1.5 10,-2.7 17.8,-2.7 8.1,0 12.2,1.3 17.8,2.7 5.7,1.5 14.4,0.7 14.4,-1 0,-0.6 -7.9,1.3 -12.6,-0.3 -6.7,-2.3 -12,-3.9 -19.6,-3.9 z"
     style="fill:#f47920"
     id="path3954" />
  <path
     class="st3"
     d="m 162.20106,66.774452 c 0.8,0.8 0.7,1.5 0.1,2.1 -0.5,0.5 -1.3,0.6 -2.1,-0.1 -0.8,-0.8 -0.7,-2.6 -0.7,-2.6 0,0 1.9,-0.1 2.7,0.6 z"
     style="fill:#f47920"
     id="path3956" />
  <path
     class="st3"
     d="m 149.60106,68.674452 c -0.8,0.8 -1.5,0.7 -2.1,0.1 -0.5,-0.5 -0.6,-1.3 0.1,-2.1 0.8,-0.8 2.6,-0.7 2.6,-0.7 0,0 0.2,2 -0.6,2.7 z"
     style="fill:#f47920"
     id="path3958" />
  <path
     d="m 121.03742,79.407848 c -0.83038,1.069231 -1.62201,2.16738 -2.4281,3.254764 -0.0199,1.025139 -0.0454,0.406564 2.39555,-1.164263 0.16742,-0.107736 0.23675,-0.320149 0.35657,-0.479139 0.37512,-0.497759 0.56546,-0.743697 0.95379,-1.235602 0.14761,-0.186986 0.29698,-0.372576 0.44547,-0.558864 0.56091,-0.682704 1.10571,-1.378134 1.61915,-2.097251 0.50264,-0.725715 2.03028,-1.266948 -1.82625,0.949208 -0.0101,0.0058 0.005,-0.028 0.0167,-0.03074 0.0449,-0.01084 0.0923,-0.0045 0.1385,-0.0067 1.60244,-0.745111 2.19789,-1.218546 3.17908,-2.319895 0.42174,-0.48673 -0.45513,-0.5902 -0.75332,-0.572136 -0.17276,0.01047 -0.34263,0.04924 -0.51394,0.07386 -0.17951,0.05517 -0.36383,0.09662 -0.53852,0.165523 -0.17502,0.06903 -0.34552,0.151292 -0.50746,0.247046 -0.82032,0.485041 -1.64307,0.967711 -2.43741,1.494214 -0.2788,0.184791 -0.64557,0.682795 -0.86279,0.958282 -0.0488,0.07813 -0.11714,0.147044 -0.14639,0.234392 -0.0914,0.273077 0.0407,0.564894 0.29162,0.694983 0.27197,0.140975 0.39516,0.07767 0.6869,0.04125 1.04777,-0.401967 2.04811,-1.070261 2.96675,-1.646047 0.0462,-0.02897 0.0977,-0.09208 0.079,-0.143321 -0.0372,-0.10195 -0.11957,-0.283629 -0.21926,-0.240722 -0.84238,0.362547 -1.59307,0.909023 -2.3896,1.363534 -0.55367,0.492533 -1.04242,1.05762 -1.59579,1.549936 -0.0455,0.04052 -0.0998,0.07007 -0.14966,0.105101 0.78706,-0.3652 1.57411,-0.730401 2.36116,-1.095601 0.55244,-0.855053 1.15238,-1.673617 1.80405,-2.455312 0.17058,-0.186021 0.3335,-0.409825 0.55138,-0.547845 0.0366,-0.02317 0.15857,-0.06894 0.12077,-0.04782 -2.17429,1.214893 -1.63061,0.505849 -2.1977,1.286345 -0.42119,1.189195 -1.01376,2.307328 -1.62754,3.406154 -0.1143,0.198023 -0.21092,0.389128 -0.3565,0.565354 -0.0396,0.04799 -0.18843,0.160571 -0.13446,0.129571 0.67355,-0.386846 1.31936,-0.82123 1.99767,-1.199679 0.0237,-0.01321 0.0489,0.07057 0.0651,0.0488 0.0715,-0.09629 0.0958,-0.219941 0.14376,-0.329912 0.64996,-1.493386 1.59584,-2.821054 2.51348,-4.155942 0.003,-0.100261 0.071,-0.220998 0.0102,-0.300782 -0.2457,-0.322329 -0.6345,-0.07068 -0.86343,0.06295 -1.86576,1.089077 -2.25848,1.236774 -3.46289,2.423859 -0.33363,0.329709 -0.59927,0.710024 -0.81513,1.124476 -0.0483,0.09283 -0.12467,0.179538 -0.13447,0.283743 -0.009,0.09504 0.0233,0.199112 0.082,0.274409 0.0636,0.08156 0.17447,0.111033 0.2617,0.16655 0.14773,-0.01427 0.29866,-0.0091 0.4432,-0.04281 0.70098,-0.163412 1.52788,-0.662635 2.1993,-0.972115 0.19897,-0.0366 -0.14323,-0.101109 -0.21348,-0.07397 -0.13046,0.05039 -0.20894,0.185969 -0.31405,0.27822 -0.40424,0.354778 -0.81496,0.701534 -1.21716,1.058642 -0.0848,0.07286 -0.26033,0.106923 -0.25441,0.218569 0.007,0.125778 0.15372,0.261341 0.27948,0.254305 0.22806,-0.01276 0.41225,-0.197159 0.61399,-0.304289 0.2814,-0.149439 0.55671,-0.310088 0.83503,-0.465199 1.07507,-0.59915 0.58105,-0.321231 1.60586,-0.903319 0.85649,-0.498545 1.71385,-0.995608 2.56949,-1.495637 0.1622,-0.09479 0.64665,-0.382847 0.484,-0.288817 -0.59606,0.344583 -1.14183,0.792916 -1.78427,1.040499 -0.12472,0.04806 -0.19972,-0.244609 -0.33193,-0.22496 -0.19522,0.02901 -0.32119,0.229456 -0.48067,0.345732 -0.22562,0.164497 -0.44973,0.33105 -0.6746,0.496575 -0.1981,0.147696 -1.11637,0.834076 -1.3461,0.998871 -0.15337,0.110013 -0.30774,0.218834 -0.46625,0.32129 -0.0469,0.03034 -0.20067,0.0982 -0.14917,0.07649 2.55869,-1.078442 1.76804,-0.489394 2.81857,-1.347988 0.42651,-0.399162 0.91773,-0.732611 1.3251,-1.152944 0.0787,-0.08117 0.38133,-0.380489 0.29386,-0.572714 -0.0563,-0.123734 -0.19861,-0.185673 -0.29792,-0.27851 -0.19197,-0.01609 -0.38356,-0.05891 -0.57591,-0.04825 -1.46132,0.08099 -3.64825,1.592958 -4.69022,2.20002 -0.0532,0.06731 -0.16879,0.116635 -0.15956,0.201922 0.0605,0.559264 0.95901,0.163641 1.17512,0.09129 0.28214,-0.09446 0.76733,-0.283224 1.0522,-0.392223 0.12014,-0.289728 0.43762,-0.06064 0.6148,-0.179791 0.0358,-0.0241 -0.0928,-0.04438 -0.12809,-0.01953 -0.0966,0.06792 -0.15517,0.178126 -0.22875,0.270472 -1.01149,1.269416 0.38314,-0.434244 -0.73081,0.917527 -0.26539,0.38929 -0.68122,0.675055 -0.9123,1.090688 -0.038,0.06844 -0.10316,0.152176 -0.0715,0.223792 0.0465,0.105101 0.15494,0.19257 0.26698,0.21816 0.13136,0.03 0.26587,-0.04406 0.3988,-0.0661 0.75527,-0.298512 3.97861,-1.761363 3.49529,-2.076452 -0.10911,-0.07114 -0.25181,-0.06674 -0.37772,-0.100103 -1.18656,0.579605 -2.33168,1.252377 -3.38296,2.051826 -0.11204,0.0852 -0.60254,0.449838 -0.72104,0.596011 -0.0411,0.05072 -0.0462,0.122171 -0.0692,0.183256 0.16255,0.03495 0.33604,0.173082 0.48766,0.104852 1.77383,-0.79821 3.74184,-2.246047 5.36679,-3.419154 0.2092,-0.203397 1.33751,-0.788378 0.80653,-1.191643 -0.0635,-0.04825 -0.14953,-0.05564 -0.2243,-0.08345 -0.10645,0.01073 -0.21555,0.0063 -0.31935,0.03221 -0.13948,0.03484 -0.27891,0.07935 -0.40486,0.148664 -0.83867,0.461539 -1.66844,0.939979 -2.48403,1.441173 -0.18342,0.112719 -0.34106,0.262875 -0.50872,0.397937 -0.51855,0.417743 -0.4885,0.402904 -0.96729,0.83756 0.0324,0.200994 -0.55656,0.362954 -0.51641,0.632034 0.0703,0.471261 0.66446,0.128598 0.79951,0.05357 2.33663,-1.298175 2.05142,-1.125815 3.45738,-2.206891 0.81414,-0.574814 1.54022,-1.273836 2.36768,-1.83039 0.0795,-0.05349 0.1662,-0.09548 0.24931,-0.143223 -0.72143,0.367814 -1.44286,0.735629 -2.16429,1.103443 -0.0732,0.04092 -0.15847,0.06532 -0.21955,0.122762 -0.13062,0.122849 -0.22761,0.277306 -0.34755,0.410599 -0.15184,0.168735 -0.30794,0.333707 -0.4675,0.495155 -0.49056,0.496341 -1.00794,0.961867 -1.53703,1.416145 -0.1068,0.135746 -1.02332,0.706865 -0.99582,0.907345 0.0114,0.0829 0.0659,0.162637 0.13267,0.213092 0.0636,0.04803 0.15391,0.04113 0.23086,0.0617 0.95191,-0.279517 1.85532,-0.829403 2.722,-1.312593 1.07108,-0.564984 2.12923,-1.155625 3.15258,-1.80439 0.72237,-0.45564 0.3686,-0.231329 -1.9861,1.14339 0.29869,-0.125831 -0.15883,0.06964 0.16941,-0.08073 0.14556,-0.06668 0.18984,-0.07619 0.35052,-0.130058 0.3331,-0.09202 0.65884,-0.215977 0.99735,-0.287973 0.62251,-0.494348 1.26058,-0.969696 1.86751,-1.483044 0.011,-0.0093 -0.2043,0.04695 -0.46243,0.136205 -0.39961,0.138171 -0.78585,0.306791 -1.17429,0.472949 -0.69622,0.295962 -1.36593,0.646273 -2.02725,1.012332 -5.89292,3.402853 -1.13327,0.656776 -0.71627,0.408614 0.11552,-0.06875 -0.23668,0.127661 -0.35694,0.187738 -0.31367,0.15669 -0.63667,0.291397 -0.96176,0.421986 -0.49853,0.186738 -0.99793,0.3714 -1.49755,0.555327 -1.05695,0.456036 -2.26948,0.855382 -3.01451,1.753806 -0.0844,0.703049 1.0059,0.01033 1.21196,-0.09033 0.61044,-0.31219 1.23581,-0.593706 1.8695,-0.855018 0.63855,-0.246419 1.25261,-0.549469 1.86396,-0.855736 1.0067,-0.524934 2.02679,-1.044296 2.95349,-1.701663 0.24169,-0.171444 0.46823,-0.36554 0.70476,-0.544082 0.40878,-0.306493 0.82267,-0.605936 1.24049,-0.900334 0.25934,-0.170033 0.51126,-0.347665 0.78322,-0.497944 -3.7046,2.142169 -1.68594,1.070718 -0.0587,-0.265256 0.0172,-0.01416 -0.11285,-0.114899 -0.28373,-0.100295 -0.22563,0.01928 -0.47535,0.129248 -0.67803,0.201328 -0.7241,0.282859 -1.45522,0.556788 -2.15097,0.905325 -1.06831,0.547803 -2.08929,1.177158 -3.13326,1.770928 -0.38792,0.220631 6.17715,-3.572166 -0.53116,0.304476 -0.36615,0.252503 -0.7464,0.500978 -1.07557,0.80096 -0.2264,0.223768 -0.44134,0.458921 -0.66241,0.688009 -0.33711,0.299622 -0.57776,0.677364 -0.8317,1.045036 -0.14983,0.232568 -0.36646,0.364075 -0.57874,0.526214 0.12223,0.41282 0.50416,0.321797 0.85078,0.324709 0.3141,-0.0059 0.62919,0.02323 0.93867,-0.03827 1.19866,-0.344116 2.10264,-1.126285 3.01832,-1.88729 0.073,-0.05472 0.14403,-0.112231 0.21906,-0.164172 0.1469,-0.101705 0.29764,-0.197967 0.45065,-0.290234 0.0705,-0.04253 0.28718,-0.161407 0.21613,-0.119754 -1.8584,1.08944 -2.52756,1.411847 -1.68066,0.996641 0.31506,-0.131787 0.61439,-0.293423 0.91533,-0.453437 0.88586,-0.523782 1.80093,-1.018331 2.65869,-1.585375 0.38913,-0.253614 0.69274,-0.608363 1.04375,-0.909248 0.33126,-0.291121 0.64615,-0.601514 0.97433,-0.894984 0.15398,-0.06665 0.19873,-0.222487 0.29854,-0.332476 0.15088,-0.166274 -0.038,0.131138 0.0987,-0.10352 0.0925,-0.02815 0.11363,-0.09104 0.17049,-0.153425 0.0428,-0.04695 0.1269,-0.08503 0.18067,-0.120165 0.0222,-0.111353 0.12056,-0.184842 0.16625,-0.283292 0.0729,-0.15721 -0.0158,-0.03246 0.0586,-0.12856 -0.0283,-0.07911 -0.0967,-0.310596 -0.22238,-0.250392 -0.7903,0.378701 -1.50737,0.89436 -2.25829,1.346145 -0.11687,0.07031 -0.46285,0.288637 -0.34495,0.220066 0.49087,-0.285494 0.99418,-0.552148 1.46409,-0.870966 0.19255,-0.130643 -0.41895,0.202656 -0.62842,0.303984 -0.90641,0.428455 -1.84615,0.779809 -2.78014,1.142104 -1.06935,0.449661 -0.32364,0.12327 -2.58167,1.448774 -0.29968,0.175923 -0.52622,0.409055 -0.74022,0.677575 -0.0755,0.580061 0.52191,0.404913 0.86342,0.311912 0.24095,-0.06562 0.71647,-0.228023 0.95571,-0.307907 1.00333,-0.345383 1.90243,-0.751601 2.77721,-1.460481 0.10385,-0.08415 -0.17068,-0.235762 -0.30116,-0.264745 -0.12224,-0.02715 -0.23785,0.07843 -0.35643,0.118675 -0.17201,0.05837 -0.34354,0.118118 -0.51531,0.177177 -0.83982,0.308278 -1.70066,0.565759 -2.52091,0.925272 -1.56761,0.878928 -3.41003,1.517377 -1.3208,1.851239 1.52356,0.113189 2.29972,-0.691811 3.71077,-1.497594 0.35392,-0.261086 0.57277,-0.65288 0.82466,-1.005274 0.23401,-0.408966 1.14483,-1.327441 1.03542,-1.815739 -0.025,-0.11158 -0.11894,-0.195332 -0.17841,-0.292998 -0.12114,-0.05841 -0.23176,-0.147864 -0.36344,-0.17523 -0.61287,-0.127372 -1.30335,0.19806 -1.84683,0.416689 -0.56368,0.226752 -0.80798,0.347536 -1.3498,0.597981 0.0652,0.458661 -0.73523,0.06771 -0.82668,0.353053 -0.0263,0.08216 0.15141,0.129817 0.23501,0.108479 0.15069,-0.03846 0.25563,-0.177206 0.38314,-0.266254 0.88939,-0.621144 0.37317,-0.27543 1.33639,-0.896403 0.15795,-0.140297 1.2783,-0.737721 1.21165,-1.055542 -0.1135,-0.541178 -1.13241,-0.166208 -1.40078,-0.102239 -1.23812,0.361235 -2.4696,0.766505 -3.64741,1.295463 -0.72521,0.425727 -1.52037,0.750093 -2.17562,1.277183 -0.096,0.07721 0.13505,0.232739 0.25252,0.269793 0.13403,0.04228 0.27904,-0.03468 0.41757,-0.05842 0.51737,-0.08868 1.03269,-0.194818 1.54958,-0.287275 0.78746,0.02667 0.60479,0.04125 1.74695,-1.375804 0.16131,-0.200131 -0.48778,0.162533 -0.73361,0.23764 -0.97595,0.298179 -1.96059,0.571365 -2.94215,0.850393 -0.44747,0.08586 -0.87046,0.276444 -1.31711,0.367227 -0.0346,0.007 -0.14003,-0.01817 -0.10476,-0.01615 0.0897,0.0051 0.18635,0.06233 0.26829,0.02551 0.1545,-0.06943 0.26102,-0.21595 0.39268,-0.322515 0.16918,-0.136937 0.33989,-0.271984 0.50983,-0.407976 0.4334,-0.372296 0.93768,-0.673188 1.32664,-1.097298 0.0651,-0.07102 0.17502,-0.139313 0.16782,-0.235412 -0.0276,-0.367679 -0.44504,-0.26875 -0.64093,-0.274714 -0.53747,0.14539 -1.07464,0.342646 -1.56159,0.61686 -0.79329,0.446722 -1.58782,0.892328 -2.36212,1.371221 -0.0706,0.04366 -0.16041,0.106579 -0.16144,0.189572 -0.001,0.100574 0.10391,0.172245 0.15587,0.258368 0.15627,0.02141 0.31111,0.06718 0.46881,0.06422 0.28546,-0.0054 1.10969,-0.164047 1.37447,-0.215681 0.56396,-0.109976 1.12446,-0.238437 1.68673,-0.356673 0.807,-0.175197 1.58143,-0.4567 2.34305,-0.770217 0,0 1.82465,-1.442126 1.82465,-1.442126 v 0 c -0.74206,0.330929 -1.50021,0.622258 -2.29782,0.79196 -0.80155,0.178077 -1.59806,0.395714 -2.40988,0.523592 -0.19737,0.03109 -0.39734,0.04326 -0.59507,0.07195 -0.10198,0.01479 -0.20238,0.03894 -0.30357,0.05841 -0.003,0.02853 -0.0365,0.09248 -0.009,0.0856 0.0587,-0.0145 0.19116,-0.146187 0.13796,-0.117558 -0.56654,0.304851 -1.12631,0.622409 -1.6812,0.947967 -0.15583,0.09143 0.32053,-0.166943 0.48337,-0.2452 0.17175,-0.08254 0.34424,-0.163884 0.52018,-0.237075 0.15469,-0.06435 0.31404,-0.116862 0.47107,-0.175293 0.0993,-0.0281 0.20779,-0.03397 0.29787,-0.08429 0.0332,-0.01853 0.0731,-0.128149 0.0424,-0.105809 -0.0614,0.04462 -0.089,0.123607 -0.14181,0.178071 -0.38573,0.397639 -0.85302,0.705394 -1.27683,1.058229 -0.17826,0.142254 -0.36015,0.280086 -0.53479,0.426764 -0.21256,0.178526 -0.66993,0.421544 -0.48549,0.820588 0.0355,0.07687 0.168,0.05167 0.25138,0.03683 0.48168,-0.08571 0.91094,-0.383726 1.40184,-0.434824 0.48156,-0.139875 1.50114,-0.438046 1.97767,-0.568142 0.30143,-0.08229 0.60472,-0.157631 0.90711,-0.236327 0.21549,-0.05608 0.45562,-0.0534 0.64653,-0.168004 0.77169,-0.463255 1.49041,-1.010569 2.21228,-1.548169 0.0475,-0.03536 -0.11659,0.02058 -0.17489,0.03086 -0.52289,0.110416 -0.45211,0.100728 -1.01258,0.195237 -0.17177,0.02896 -0.34471,0.05099 -0.51608,0.08224 -0.10876,0.01983 -0.24802,-0.0094 -0.32399,0.07094 -0.0569,0.06014 0.0153,0.164835 0.023,0.247253 -0.653,0.371483 -1.30599,0.742966 -1.95899,1.11445 1.15488,-0.612786 2.41838,-1.004661 3.66709,-1.375475 0.31862,-0.0803 0.64696,-0.130294 0.95468,-0.245496 0.0352,-0.01317 0.0933,-0.110311 0.0854,-0.07359 -0.0771,0.356436 -0.91202,0.653595 -1.11077,0.888727 -0.34671,0.226346 -1.07617,0.691322 -1.40657,0.950834 -0.15535,0.122014 -0.35883,0.219219 -0.43645,0.400866 -0.0488,0.11431 -1e-5,0.304304 0.11336,0.355276 0.30156,0.135576 0.63087,-0.625986 0.90935,-0.396188 0.62851,-0.302514 0.69326,-0.343423 1.35025,-0.618585 0.50549,-0.211707 1.09105,-0.49012 1.65723,-0.488443 0.09,2.67e-4 0.176,0.0379 0.264,0.05685 0.0329,0.04356 0.0917,0.07653 0.0987,0.130672 0.0205,0.158498 -0.15629,0.448474 -0.21844,0.5488 -0.24926,0.402353 -0.56165,0.763558 -0.83301,1.150278 -0.26825,0.34409 -0.52055,0.718044 -0.90903,0.936769 3.81273,-2.164823 1.97854,-0.949391 1.13693,-0.795092 -0.27334,0.05011 -0.3412,0.03703 -0.61594,0.03549 -0.0576,-0.0078 -0.61375,-0.118019 -0.6518,-0.108186 -0.0234,0.006 0.004,0.135576 0.0548,0.04721 -0.64495,0.367454 -1.28991,0.734908 -1.93487,1.102362 0.80117,-0.441619 1.70385,-0.670808 2.55487,-0.994049 0.15882,-0.05091 0.31706,-0.103725 0.47648,-0.152742 0.10185,-0.03131 0.25293,0.0034 0.30724,-0.08822 0.0576,-0.09727 -0.14718,-0.266264 -0.0569,-0.334339 2.37427,-1.790773 2.66675,-1.31547 1.37619,-0.876724 -0.19878,0.06823 -0.72754,0.251842 -0.93022,0.313074 -0.12714,0.03841 -0.26085,0.05565 -0.38477,0.103421 -0.0591,0.02277 -0.10904,0.06528 -0.15775,0.105702 -0.009,0.0073 -0.0177,0.04032 -0.009,0.03281 0.0194,-0.01711 0.0295,-0.0425 0.0443,-0.06374 0.15288,-0.167818 0.30978,-0.309375 0.49773,-0.438718 0.0798,-0.05494 0.32897,-0.204683 0.24417,-0.157788 -2.12632,1.175836 -2.40259,1.29138 -1.54282,0.902338 0.95261,-0.403392 1.92666,-0.757315 2.86553,-1.193288 1.44756,-0.663864 0.67325,-0.287774 3.16858,-1.723898 0.13568,-0.07809 0.53166,-0.330339 0.39471,-0.254506 -0.64271,0.355871 -1.23826,0.803731 -1.9127,1.095021 -0.096,0.04144 -0.0527,-0.235168 -0.1129,-0.292553 -0.0465,0.118416 -0.15207,0.257683 -0.2616,0.318136 -0.11631,0.102536 -0.22848,0.2098 -0.3245,0.330345 -0.13293,0.122294 -0.23222,0.287177 -0.38718,0.392579 -0.30574,0.30525 -0.64171,0.577062 -0.95207,0.877596 -0.34679,0.317848 -0.68381,0.650102 -1.0942,0.887396 -0.78273,0.475525 -1.90734,1.507024 1.52807,-0.830375 -0.30965,0.156676 -0.59969,0.350592 -0.9277,0.470034 -1.15921,0.571275 -2.31196,1.200674 -3.33816,1.992719 -0.17962,0.146557 -0.3547,0.303278 -0.54421,0.437206 -0.0424,0.02999 -0.17668,0.109462 -0.1315,0.08377 1.90636,-1.083973 2.59143,-1.542306 1.8237,-1.033344 -0.28271,0.140619 -0.58511,0.10151 -0.89443,0.104411 -0.0503,3.2e-5 -0.58538,-0.0086 -0.59165,-0.0023 -0.0375,0.03777 0.0422,0.168857 0.0554,0.194991 0.20579,-0.16369 0.37034,-0.363138 0.51692,-0.581859 0.24966,-0.365818 0.52391,-0.707756 0.85073,-1.008772 0.22109,-0.227097 0.43622,-0.461559 0.6779,-0.667231 0.34379,-0.263597 0.68176,-0.537047 1.06004,-0.751234 -0.60042,0.345566 -2.40168,1.382245 -1.80125,1.036698 0.77437,-0.445651 1.54964,-0.889729 2.32307,-1.337009 0.58659,-0.339231 -1.17641,0.67286 -1.76255,1.012858 -0.17528,0.101669 0.35739,-0.191087 0.53741,-0.28409 0.085,-0.04391 0.1695,-0.0888 0.25424,-0.133203 0.67248,-0.403061 1.42943,-0.653855 2.15166,-0.951736 0.11305,-0.043 0.55726,-0.174932 0.68294,-0.249003 0.0153,-0.009 0.0187,-0.03143 0.0333,-0.0414 2.49384,-1.698257 3.0024,-1.92708 -0.11813,-0.124082 -0.25142,0.160091 -0.49606,0.331137 -0.74014,0.502098 -0.41522,0.294076 -0.82455,0.596935 -1.22901,0.905565 -0.23052,0.178485 -0.4575,0.360782 -0.7015,0.520981 -0.0877,0.05759 -0.35902,0.217324 -0.2677,0.165642 2.44559,-1.38402 2.21424,-1.25523 1.40165,-0.815937 -0.60117,0.301478 -1.20261,0.601218 -1.8267,0.853636 -0.64954,0.243392 -1.27601,0.548612 -1.89863,0.853416 -0.11035,0.0542 -0.22046,0.108904 -0.33106,0.162589 -0.0964,0.04678 -0.19341,0.09217 -0.28986,0.138795 -0.14478,0.07 -0.37274,0.146608 -0.22621,0.353136 0.008,0.01162 0.0261,-0.01149 0.0391,-0.01724 0.59623,-0.48662 1.96192,-1.153471 -1.73814,0.968282 -0.0574,0.03294 0.11426,-0.06695 0.1722,-0.09899 0.22423,-0.123981 0.17039,-0.0938 0.40827,-0.195587 0.51083,-0.177232 1.01055,-0.384701 1.52054,-0.564213 0.45734,-0.174498 0.92681,-0.3548 1.35406,-0.595948 0.35272,-0.199079 4.97996,-2.864378 0.71588,-0.408962 0.65887,-0.369702 1.32438,-0.725478 2.01489,-1.033359 0.37565,-0.162926 0.74699,-0.340525 1.13453,-0.474208 0.0877,-0.03026 0.17789,-0.05281 0.26674,-0.07952 0.0457,-0.01374 0.0981,-0.01399 0.13685,-0.04183 0.68599,-0.493116 1.3539,-1.010925 2.03084,-1.516387 -0.3141,0.160759 -0.68956,0.182631 -1.01268,0.323804 -1.01694,0.224369 -1.87293,0.872692 -2.74442,1.43712 -0.6866,0.451873 -1.53974,0.91733 1.7671,-0.995242 0.41208,-0.238332 -1.20072,0.643191 -0.79558,0.423367 -0.84435,0.486936 -1.69601,0.987156 -2.60637,1.338314 -0.0484,0.05613 -0.1493,0.196615 -0.0762,0.208889 0.0384,0.0064 0.0495,-0.06031 0.0771,-0.08778 0.25874,-0.257415 0.56181,-0.464571 0.82544,-0.71674 0.51516,-0.463855 1.02385,-0.93468 1.51115,-1.428096 0.0898,-0.09093 0.79585,-0.823605 0.8933,-0.972785 0.0781,-0.119583 0.10522,-0.265597 0.15782,-0.398395 -0.74034,0.333296 -1.48699,0.652934 -2.22104,0.999887 -0.0702,0.0332 -0.12597,0.091 -0.18744,0.138508 -0.12296,0.09503 -0.24471,0.191635 -0.36578,0.289069 -0.62319,0.501559 -1.23865,1.013031 -1.88019,1.491443 -0.27058,0.198315 -1.14231,0.652011 -0.81173,0.594944 0.46628,-0.08049 0.82225,-0.470694 1.25104,-0.670781 0.14044,-0.06553 -0.25458,0.176796 -0.38186,0.265194 -0.0159,0.05718 -0.10326,0.19195 -0.0476,0.171527 0.22251,-0.08158 0.073,-0.633749 0.46453,-0.538253 0.40662,-0.362993 0.51555,-0.473974 0.96221,-0.812817 0.17777,-0.134853 0.74593,-0.485231 0.54436,-0.389545 -3.02209,1.434598 -1.65771,0.918489 -0.96374,0.621309 0.044,-0.0089 0.0911,-0.0081 0.132,-0.02661 0.0146,-0.0066 0.0325,-0.05483 0.0217,-0.04296 -0.26523,0.291652 -0.53947,0.573243 -0.87745,0.790373 -0.66139,0.486301 -1.32502,0.968741 -2.01223,1.418426 -0.25559,0.167255 -1.04874,0.624419 -0.77476,0.489377 0.49217,-0.242581 0.91334,-0.632012 1.43134,-0.81299 0.12257,-0.04282 -0.0948,0.241737 -0.14224,0.362605 0.17348,-0.241664 0.50013,-0.454564 0.72888,-0.624441 0.15801,-0.117341 0.65686,-0.429797 0.47939,-0.344688 -0.46125,0.221208 -2.32399,1.311749 -1.16501,0.635456 0.0287,-0.08745 0.0694,-0.171863 0.0862,-0.262356 0.004,-0.02294 -0.0167,-0.04358 -0.0251,-0.06537 0.6201,-0.349369 1.2402,-0.698737 1.8603,-1.048105 0.13053,-0.07445 -0.26361,0.144382 -0.39702,0.213544 -0.44853,0.232537 -0.3965,0.201058 -0.84593,0.396191 -0.0959,0.0451 -0.20454,0.06968 -0.28778,0.135303 -0.0416,0.03278 -0.0228,0.17371 -0.0667,0.144166 -0.0441,-0.02964 0.0358,-0.100941 0.0641,-0.145941 0.24008,-0.38256 0.58591,-0.687141 0.85104,-1.050308 0.20907,-0.254399 0.95458,-1.060552 1.00609,-1.378105 0.0626,-0.385763 -0.17047,-0.358721 -0.39681,-0.302234 -0.14736,0.03678 -0.28581,0.102893 -0.42871,0.154339 -0.50488,0.201683 -1.01164,0.390456 -1.52469,0.57019 -0.0955,0.03345 -0.20611,0.03952 -0.28606,0.101538 -0.0369,0.02866 -0.0696,0.133349 -0.0231,0.13834 0.0629,0.0068 0.095,-0.08369 0.14246,-0.125531 -0.5627,0.318847 -1.12643,0.635871 -1.6881,0.95654 -0.15468,0.08831 0.30904,-0.177379 0.46711,-0.259445 0.70141,-0.364137 1.43265,-0.689384 2.23803,-0.69401 0.15137,0.03138 0.2161,-0.005 0.0866,0.18599 -0.38198,0.563346 -1.07252,0.930397 -1.55392,1.395242 -0.14499,0.110626 -0.61183,0.376405 -0.43497,0.331878 0.71373,-0.1797 1.38888,-0.487971 2.07831,-0.745631 0.0197,-0.0074 0.0256,-0.03396 0.0423,-0.04688 0.13359,-0.103941 0.27202,-0.201516 0.40747,-0.303021 1.09831,-0.823038 0.0996,-0.08338 1.32548,-0.986436 0.24246,-0.170327 0.48214,-0.344696 0.72739,-0.51098 0.198,-0.13424 0.46815,-0.192264 0.60212,-0.390437 0.0758,-0.112148 0.0586,-0.44985 -0.0674,-0.400473 -0.81449,0.319066 -1.51549,0.874144 -2.27029,1.316251 -0.1478,0.08656 -0.58813,0.350984 -0.43738,0.269683 0.44289,-0.238848 0.87618,-0.495063 1.31427,-0.742594 -0.78842,0.454076 -1.58576,0.888904 -2.38133,1.330042 -0.16117,0.08937 -0.36416,0.131287 -0.47968,0.274869 -0.0672,0.08355 -0.0931,0.268044 -3e-4,0.321711 0.0839,0.0485 0.14074,-0.133231 0.21112,-0.199847 0.56472,-0.505344 0.16408,-0.151787 0.79507,-0.693895 0.14405,-0.123755 0.29015,-0.245198 0.43112,-0.372446 0.26459,-0.238833 0.5092,-0.348195 0.38535,-0.768873 -0.0165,-0.05588 -0.11517,-0.0176 -0.17276,-0.0264 -0.83675,0.377029 -1.62697,0.861512 -2.50652,1.140366 -0.0457,0.01042 -0.0945,0.05061 -0.13724,0.03125 -0.11439,-0.05183 0.0361,-0.253874 0.0957,-0.36441 0.20808,-0.385781 0.47615,-0.730543 0.78564,-1.040694 0.14419,-0.138295 0.28327,-0.282132 0.43258,-0.414886 0.16614,-0.147718 0.72173,-0.502943 0.51316,-0.425992 -0.51624,0.190469 -0.9612,0.537527 -1.45781,0.774519 -0.14082,0.06721 0.26601,-0.16485 0.38693,-0.263474 0.0583,-0.04757 0.073,-0.155877 0.14662,-0.171697 0.0451,-0.0097 0.007,0.09201 0.01,0.138017 -0.87183,1.386708 -1.78463,2.75275 -2.51584,4.221885 -0.0483,0.170017 -0.14558,0.333309 -0.14489,0.510052 4.2e-4,0.107836 0.0487,0.329764 0.148,0.287674 1.68176,-0.71296 2.00314,-0.814843 2.56661,-1.978891 0.57748,-1.152006 1.17074,-2.301128 1.65038,-3.497777 9e-5,-0.131824 0.12685,-0.432262 2.6e-4,-0.395471 -1.46982,0.427188 -2.07541,0.722661 -2.82575,1.692457 -0.63499,0.81579 -1.20767,1.676989 -1.85123,2.485888 0.71049,-0.262153 1.4279,-0.506286 2.13148,-0.786457 0.037,-0.01474 0.0486,-0.06331 0.0758,-0.09248 0.0935,-0.100455 0.18909,-0.198913 0.28586,-0.296188 0.42707,-0.429294 0.8623,-0.853811 1.34651,-1.219335 -0.60369,0.323681 -1.17159,0.725546 -1.81108,0.971045 -0.0811,0.03114 -0.01,-0.180241 -0.0541,-0.255004 -0.0142,-0.024 -0.0926,0.06214 -0.0683,0.04842 0.60106,-0.339594 1.19746,-0.687414 1.79895,-1.026242 0.1021,-0.05751 -0.1984,0.124963 -0.30064,0.182233 -0.10658,0.0597 -0.21698,0.112319 -0.32546,0.168479 -0.1002,0.03794 -0.19554,0.09283 -0.30061,0.113821 -0.52211,0.104311 -0.47976,-0.286506 -0.23079,-0.576288 0.1752,-0.220485 0.26185,-0.340871 0.47035,-0.548219 0.11602,-0.115385 0.51292,-0.394819 0.36203,-0.331528 -0.54145,0.2271 -1.03203,0.560388 -1.55305,0.831078 -0.16425,0.08533 0.31478,-0.196522 0.48247,-0.274879 0.16253,-0.07594 0.33656,-0.124308 0.50485,-0.186463 0.49004,-0.09614 0.37793,-0.102088 0.82442,-0.09839 0.28612,0.0024 0.22405,-0.05079 0.0812,0.128009 -0.22241,0.256116 -0.4499,0.508658 -0.70586,0.732246 -0.64543,0.563807 -1.48382,0.902796 1.67561,-0.896755 -0.16113,0.322298 0.0528,-0.02529 -0.11366,0.0651 -1.99403,1.082539 -1.75739,0.597585 -2.33822,1.527241 -0.47008,0.704789 -0.99985,1.366081 -1.51599,2.037226 -0.46627,0.604678 -0.9316,1.210709 -1.41729,1.800052 -0.14167,0.171909 -0.65149,0.549897 -0.4324,0.509556 1.96371,-0.361598 2.08683,-1.524081 1.98653,-0.722255 0.74833,-1.129649 1.53616,-2.24152 2.46071,-3.235185 0,0 -2.20986,0.926625 -2.20986,0.926625 z"
     id="path1066"
     style="fill:#ffd000;fill-opacity:1" />
  <path
     d="m 122.53421,76.033608 c -0.65804,0.641959 -1.27505,1.314526 -1.76984,2.090966 -0.43109,0.619208 -0.50587,1.356494 -0.66768,2.071159 -0.009,0.03177 -0.0789,0.29664 -0.10102,0.353805 -0.0122,0.03158 -0.0979,0.09203 -0.069,0.07454 2.12042,-1.279287 2.81682,-1.473361 1.69312,-1.112077 0,0 -1.87898,1.483051 -1.87898,1.483051 v 0 c 0.7273,-0.409109 2.3894,-1.343993 2.44406,-1.375948 0.0138,-0.0081 -4.1e-4,-0.03216 10e-4,-0.04812 0.0145,-0.142232 0.0579,-0.280409 0.0733,-0.422478 0.12835,-0.693876 0.25679,-1.382821 0.67269,-1.973615 0.52073,-0.761568 1.13835,-1.445054 1.83422,-2.052159 0,0 -2.23216,0.910868 -2.23216,0.910868 z"
     id="path1068"
     style="fill:#ffd000;fill-opacity:1" />
  <path
     d="m 178.13245,77.294954 c 0.60957,0.470344 1.27438,0.869988 1.92549,1.281286 0.29977,0.187849 0.56006,0.428398 0.86273,0.611315 0.23222,0.191533 0.47651,0.36721 0.70517,0.563127 0.55047,0.443386 1.18024,0.770598 1.78006,1.139847 0.38599,0.262405 0.78395,0.507639 1.16751,0.773587 0.48269,0.296273 0.99391,0.543879 1.50853,0.779138 0.50869,0.245979 1.04078,0.423753 1.5869,0.564086 0.53797,0.127961 1.08519,0.206376 1.6367,0.15229 1.14104,-0.281777 2.11127,-1.004089 3.10408,-1.603045 0.16723,-0.100892 0.19625,-0.21708 0.28052,-0.381755 0.25862,-0.70305 0.25736,-1.457818 0.0186,-2.167627 -0.0675,-0.200677 -0.16085,-0.391718 -0.24127,-0.587576 -0.30566,-0.513439 -0.37012,-0.720334 -0.86062,-1.112547 -0.92672,-0.741027 -2.35284,-1.162264 -3.47324,-1.521856 -0.94855,-0.238385 -1.94785,-0.624868 -2.93517,-0.399385 -1.74869,0.991465 -2.54171,0.838402 -2.40593,2.452754 0.0821,0.659974 0.3488,1.041347 0.89505,1.397948 0.61621,0.267646 1.29582,0.344197 1.9517,0.46767 0.52975,0.07798 1.05659,0.14579 1.55221,0.356401 0.25951,0.09946 0.3461,0.259499 0.44159,0.504255 0.012,0.04006 0.0352,0.07838 0.036,0.120193 0.001,0.07895 -0.0753,0.103195 -0.12671,0.136159 0.61707,-0.381971 1.25621,-0.730405 1.85121,-1.145913 0.10745,-0.07503 -0.24749,0.08884 -0.37578,0.115584 -0.15595,0.0325 -0.31595,0.04101 -0.47392,0.06151 -0.16526,-0.0075 -0.33387,0.01141 -0.49578,-0.02252 -0.93344,-0.195622 -1.42201,-1.111144 -1.78762,-1.896839 -0.17283,-0.46067 -0.32685,-0.949774 -0.24607,-1.447186 0.0106,-0.0654 0.007,-0.142665 0.0517,-0.191931 0.0368,-0.04089 0.10623,-0.0285 0.15934,-0.04275 -0.64195,0.387306 -1.30846,0.736559 -1.92586,1.161919 -0.0647,0.04459 0.15818,-0.01 0.23579,0.0025 0.1033,0.01654 0.20471,0.04647 0.30247,0.08372 0.37937,0.144544 0.68919,0.388683 1.00215,0.638929 0.56408,0.50448 0.88356,1.142273 1.09586,1.855188 0.005,0.08662 0.0606,0.340516 -0.0551,0.424154 -0.0481,0.03476 -0.22629,0.04846 -0.1774,0.01484 0.6095,-0.419184 1.34663,-0.668224 1.87709,-1.183804 0.11364,-0.110456 -0.28295,-0.146726 -0.40798,-0.244107 -0.18428,-0.143532 -0.34349,-0.316639 -0.51523,-0.474958 -0.48425,-0.502359 -0.91556,-1.053516 -1.30566,-1.631445 -0.15574,-0.230742 -0.33416,-0.486479 -0.41055,-0.762156 -0.0225,-0.08133 -0.0138,-0.168233 -0.0207,-0.25235 0.037,-0.04969 0.0604,-0.113284 0.111,-0.149081 0.0617,-0.04365 0.27461,-0.12223 0.21217,-0.0797 -0.57977,0.394974 -1.24266,0.676361 -1.76892,1.140247 -0.10069,0.08876 0.26787,0.03153 0.39666,0.06937 0.38531,0.113224 0.59356,0.265896 0.94645,0.470094 1.05966,0.678996 1.88633,1.611529 2.54388,2.673129 0.12761,0.271988 0.47929,0.764973 0.25197,1.089057 -0.0463,0.06605 -0.14999,0.103345 -0.21848,0.134912 3.71273,-2.36851 2.48622,-1.301554 1.70538,-1.058294 -0.28844,0.08986 -0.58283,0.136067 -0.88063,0.181929 -0.71539,0.09129 -1.43699,0.110502 -2.15727,0.119589 -0.34203,0.01146 -0.67606,0.02765 -0.98665,-0.131106 -0.33909,-0.284015 -0.38966,-0.948648 -0.46659,-1.356605 -0.081,-0.68343 -0.38501,-1.313616 -0.64295,-1.94482 0,0 -2.10797,1.188903 -2.10797,1.188903 v 0 c 0.29403,0.595434 0.56929,1.207323 0.6593,1.871775 0.0615,0.319114 0.0972,0.515848 0.16724,0.833483 0.0632,0.286841 0.10744,0.553222 0.33991,0.749042 0.36558,0.201815 0.67356,0.251347 1.09358,0.207862 0.73047,-0.02025 1.46138,-0.04851 2.18955,-0.111445 1.49928,-0.15334 1.67866,-0.39261 3.35508,-1.469536 0.34303,-0.485598 -0.0142,-1.04823 -0.27937,-1.485137 -0.7095,-1.064707 -1.55038,-2.021206 -2.61175,-2.752007 -0.4374,-0.294431 -0.48565,-0.360982 -0.94781,-0.554299 -0.13612,-0.05693 -0.27957,-0.19551 -0.41821,-0.145019 -0.83947,0.305732 -1.62205,0.75192 -2.40909,1.174709 -0.0773,0.04153 -0.12772,0.126453 -0.16282,0.206886 -0.0346,0.07935 -0.0263,0.171144 -0.0395,0.256715 0.0255,0.09826 0.0383,0.200726 0.0765,0.294796 0.11722,0.28891 0.29944,0.524465 0.4852,0.772136 0.42524,0.566961 0.87823,1.113737 1.3442,1.647435 0.16292,0.176562 0.31915,0.359551 0.48877,0.529686 0.13086,0.131249 0.23236,0.419952 0.41181,0.373592 0.84209,-0.217559 1.59622,-0.69435 2.36965,-1.092192 0.0597,-0.03068 0.0787,-0.111871 0.0967,-0.176482 0.0502,-0.179875 -0.003,-0.343746 -0.0348,-0.520321 -0.26147,-0.782686 -0.56342,-1.395393 -1.18579,-1.961907 -0.41423,-0.347365 -0.82171,-0.660748 -1.33395,-0.847795 -0.0903,-0.03296 -0.18579,-0.130704 -0.27345,-0.09132 -0.78516,0.352759 -1.51244,0.8223 -2.26866,1.23345 -0.0283,0.06136 -0.0682,0.118607 -0.085,0.184084 -0.13404,0.523446 0.1509,1.259009 0.33191,1.734385 0.42212,0.825138 0.96229,1.811666 1.91954,2.100827 0.16482,0.04979 0.34203,0.03994 0.51304,0.05991 1.48612,-0.07573 1.17829,-0.147902 3.12904,-1.420308 0.1234,-0.08049 0.0191,-0.366541 -0.0108,-0.461597 -0.12018,-0.294479 -0.23553,-0.536417 -0.55383,-0.654844 -0.51054,-0.241672 -1.06055,-0.31829 -1.61751,-0.382295 -0.6312,-0.113032 -1.27224,-0.211434 -1.88313,-0.408011 -0.51061,-0.286595 -0.73233,-0.597397 -0.77648,-1.194925 -0.003,-0.263541 -0.0108,-0.571754 0.1506,-0.799155 0.0335,-0.04718 0.17074,-0.152733 0.11943,-0.125981 -0.64702,0.337355 -1.2762,0.70788 -1.9143,1.06182 0.0769,-0.036 0.14959,-0.08312 0.23081,-0.107999 0.87218,-0.267125 1.90641,0.132692 2.75632,0.288216 1.28397,0.374081 3.0005,0.836064 3.84589,1.955178 0.12653,0.167495 0.21085,0.363039 0.31628,0.544559 0.0709,0.188015 0.15643,0.371165 0.21281,0.564045 0.19773,0.676395 0.16162,1.410899 -0.18286,2.031368 -0.53421,0.599832 -1.9111,1.223447 1.53824,-0.769792 0.0806,-0.04656 -0.16431,0.0876 -0.24885,0.12649 -0.0979,0.04506 -0.42452,0.173246 -0.52618,0.213621 -0.53118,0.102436 -1.06045,0.04019 -1.58731,-0.07314 -0.53762,-0.129361 -1.0622,-0.295894 -1.56649,-0.524675 -0.49848,-0.226326 -0.99385,-0.461597 -1.4544,-0.759928 -0.38859,-0.280627 -0.82263,-0.492853 -1.22156,-0.75844 -0.58521,-0.354087 -1.19313,-0.680056 -1.71712,-1.124469 -0.22507,-0.219542 -0.48243,-0.395951 -0.70627,-0.615534 -0.30398,-0.195368 -0.62562,-0.365608 -0.91979,-0.578479 -0.64228,-0.371797 -1.30647,-0.750112 -1.84645,-1.262163 0,0 -2.08367,1.276873 -2.08367,1.276873 z"
     id="path1076"
     style="fill:#ffd000;fill-opacity:1" />
  <path
     d="m 176.85862,77.278974 c 0.58773,-0.03273 1.16716,0.08178 1.73595,0.215367 0.77737,0.230312 1.52942,0.53977 2.29138,0.817418 0.39997,0.138287 0.80094,0.274683 1.19775,0.421922 0.0893,0.03314 0.17923,0.06512 0.26632,0.103763 0.0351,0.01558 0.0673,0.07971 0.0993,0.05846 0.65925,-0.438015 1.27901,-0.932747 1.91852,-1.39912 -0.692,-0.006 -1.37754,-0.185954 -2.01732,-0.441274 -0.0196,-0.02332 -0.0892,-0.07205 -0.0588,-0.06997 0.0948,0.0065 0.34124,0.0195 0.27209,0.08461 -0.42463,0.399801 -1.15299,0.493991 -1.43111,1.006637 -0.15621,0.287945 0.64546,-0.113543 0.97016,-0.156969 0.82522,-0.110367 1.42663,-0.145633 2.25956,-0.210853 1.83567,-0.170339 3.67281,-0.05654 5.49826,0.155362 0,0 1.82771,-1.299615 1.82771,-1.299615 v 0 c -1.85182,-0.165378 -3.71414,-0.303924 -5.57251,-0.149264 -1.04743,0.07031 -1.19738,0.07353 -2.22456,0.168623 -0.30526,0.02826 -0.6285,-0.01625 -0.91501,0.09283 -0.92169,0.350913 -1.8164,0.780379 -2.67109,1.272493 -0.096,0.05526 -0.10647,0.209066 -0.0929,0.318978 0.008,0.06388 0.0984,0.08299 0.14763,0.124478 0.66256,0.246422 1.34182,0.412825 2.03096,0.563043 0.69858,-0.470812 1.4219,-0.906843 2.09573,-1.412434 0.041,-0.03074 -0.0963,-0.03507 -0.14482,-0.05138 -0.0955,-0.03206 -0.19155,-0.06258 -0.28737,-0.09371 -0.40489,-0.131557 -0.8068,-0.27132 -1.2111,-0.404683 -0.76073,-0.290065 -1.51388,-0.603093 -2.28976,-0.84965 -0.55932,-0.15226 -1.12775,-0.285931 -1.70926,-0.307764 0,0 -1.98571,1.442701 -1.98571,1.442701 z"
     id="path1078"
     style="fill:#ffd000;fill-opacity:1" />
  <path
     d="m 186.21441,80.622659 c 0.17072,-0.202062 0.32607,-0.41644 0.48795,-0.625568 0,0 -2.2076,0.946326 -2.2076,0.946326 v 0 c -0.17361,0.220669 -0.34996,0.438836 -0.53443,0.650609 0,0 2.25408,-0.971367 2.25408,-0.971367 z"
     id="path1080"
     style="fill:#ffd000;fill-opacity:1" />
</svg>
