<?xml version="1.0" encoding="UTF-8" standalone="no"?>
<svg
   xmlns:dc="http://purl.org/dc/elements/1.1/"
   xmlns:cc="http://creativecommons.org/ns#"
   xmlns:rdf="http://www.w3.org/1999/02/22-rdf-syntax-ns#"
   xmlns:svg="http://www.w3.org/2000/svg"
   xmlns="http://www.w3.org/2000/svg"
   xmlns:sodipodi="http://sodipodi.sourceforge.net/DTD/sodipodi-0.dtd"
   xmlns:inkscape="http://www.inkscape.org/namespaces/inkscape"
   id="master-artboard"
   viewBox="0 0 323.52758 204.0189"
   version="1.1"
   x="0px"
   y="0px"
   width="85.599998mm"
   height="53.98mm"
   sodipodi:docname="duck_neutral copy 6.svg"
   inkscape:version="1.0 (4035a4f, 2020-05-01)">
  <metadata
     id="metadata3084">
    <rdf:RDF>
      <cc:Work
         rdf:about="">
        <dc:format>image/svg+xml</dc:format>
        <dc:type
           rdf:resource="http://purl.org/dc/dcmitype/StillImage" />
        <dc:title />
      </cc:Work>
    </rdf:RDF>
  </metadata>
  <defs
     id="defs3082" />
  <sodipodi:namedview
     inkscape:document-rotation="0"
     pagecolor="#ffffff"
     bordercolor="#666666"
     borderopacity="1"
     objecttolerance="10"
     gridtolerance="10"
     guidetolerance="10"
     inkscape:pageopacity="0"
     inkscape:pageshadow="2"
     inkscape:window-width="900"
     inkscape:window-height="444"
     id="namedview3080"
     showgrid="false"
     units="mm"
     width="296mm"
     inkscape:zoom="1.3100202"
     inkscape:cx="287.56339"
     inkscape:cy="60.264468"
     inkscape:window-x="540"
     inkscape:window-y="354"
     inkscape:window-maximized="0"
     inkscape:current-layer="master-artboard" />
  <g
     id="g3069"
     transform="translate(-17.898944,-41.525549)">
    <path
       class="st0"
       d="m 248.9,182 c 0,25.5 -17.8,43.8 -76,43.8 -58.2,0 -76,-18.3 -76,-43.8 0,-33.3 27.2,-54.2 76,-54.2 48.8,0 76,21 76,54.2 z"
       style="fill:#ffc20e"
       id="path3047" />
    <path
       class="st1"
       d="m 239,113.8 c 0,30.8 -28.4,46.5 -66.2,46.5 -37.8,0 -66.2,-15.7 -66.2,-46.5 0,-35.8 31.7,-59 66.2,-59 34.5,0.1 66.2,23.3 66.2,59 z"
       style="fill:#ffd000"
       id="path3049" />
    <g
       id="g3055">
      <path
         class="st1"
         d="m 255.3,169.9 c 2.3,13 -2.9,25 -9.6,26.2 -7,1.2 -11.6,-9.1 -13.9,-22.1 -2.3,-13 0.5,-20.5 7.5,-21.7 8.4,-1.5 13.9,5.8 16,17.6 z"
         style="fill:#ffd000"
         id="path3051" />
      <path
         class="st1"
         d="m 90.4,169.9 c -2.3,13 2.9,25 9.6,26.2 7,1.2 11.6,-9.1 13.9,-22.1 2.3,-13 -0.5,-20.5 -7.5,-21.7 -8.4,-1.5 -13.9,5.8 -16,17.6 z"
         style="fill:#ffd000"
         id="path3053" />
    </g>
    <g
       id="g3061">
      <path
         class="st2"
         d="m 172.9,140 c -19.3,0 -33.5,-16 -33.5,-20.4 0,-4.4 5.7,2.9 12.6,-2.7 6.8,-5.6 12.3,-13.5 20.9,-13.5 8.6,0 14.1,7.9 20.9,13.5 6.8,5.6 12.6,-1.6 12.6,2.7 0,4.3 -14.2,20.4 -33.5,20.4 z"
         style="fill:#f7941e"
         id="path3057" />
      <path
         class="st3"
         d="m 172.9,136 c 14.9,0 29.8,-7.7 32.1,-16.5 0.2,-0.6 -5.6,6.1 -12.6,6.1 -7,0 -11.9,-3.9 -19.6,-3.9 -7.6,0 -12.6,3.9 -19.6,3.9 -7,0 -12.7,-6.7 -12.6,-6.1 2.5,8.9 17.4,16.5 32.3,16.5 z"
         style="fill:#f47920"
         id="path3059" />
    </g>
    <g
       id="g3067">
      <path
         class="st3"
         d="m 180.1,108.3 c 0.8,0.8 0.7,1.5 0.1,2.1 -0.5,0.5 -1.3,0.6 -2.1,-0.1 -0.8,-0.8 -0.7,-2.6 -0.7,-2.6 0,0 1.9,-0.1 2.7,0.6 z"
         style="fill:#f47920"
         id="path3063" />
      <path
         class="st3"
         d="m 167.5,110.2 c -0.8,0.8 -1.5,0.7 -2.1,0.1 -0.5,-0.5 -0.6,-1.3 0.1,-2.1 0.8,-0.8 2.6,-0.7 2.6,-0.7 0,0 0.2,2 -0.6,2.7 z"
         style="fill:#f47920"
         id="path3065" />
    </g>
  </g>
  <g
     id="g3077"
     transform="translate(-17.898944,-41.525549)">
    <g
       id="g3075">
      <path
         class="st4"
         d="m 147.7,98.1 c 0,-5.4 -4.4,-9.7 -9.7,-9.7 -5.4,0 -9.7,4.4 -9.7,9.7 0,5.4 4.4,9.7 9.7,9.7 5.4,0.1 9.7,-4.3 9.7,-9.7 z"
         style="fill:#69502f"
         id="path3071" />
      <path
         class="st4"
         d="m 219.3,98.1 c 0,-5.4 -4.4,-9.7 -9.7,-9.7 -5.4,0 -9.7,4.4 -9.7,9.7 0,5.4 4.4,9.7 9.7,9.7 5.4,0.1 9.7,-4.3 9.7,-9.7 z"
         style="fill:#69502f"
         id="path3073" />
    </g>
  </g>
  <path
     class="st3"
     d="m 163.00106,66.97445 c 0.8,0.8 0.7,1.5 0.1,2.1 -0.5,0.5 -1.3,0.6 -2.1,-0.1 -0.8,-0.8 -0.7,-2.6 -0.7,-2.6 0,0 1.9,-0.2 2.7,0.6 z"
     style="fill:#f47920"
     id="path194" />
  <path
     class="st3"
     d="m 150.40106,68.87445 c -0.8,0.8 -1.5,0.7 -2.1,0.1 -0.5,-0.5 -0.6,-1.3 0.1,-2.1 0.8,-0.8 2.6,-0.7 2.6,-0.7 0,0 0.2,1.9 -0.6,2.7 z"
     style="fill:#f47920"
     id="path196" />
  <g
     transform="translate(-767.39894,-290.62555)"
     id="g374">
    <path
       class="st4"
       d="m 897.2,347.2 c 0,-5.4 -4.4,-9.7 -9.7,-9.7 -5.4,0 -9.7,4.4 -9.7,9.7 0,5.4 4.4,9.7 9.7,9.7 5.3,0 9.7,-4.4 9.7,-9.7 z"
       style="fill:#69502f"
       id="path366" />
    <path
       class="st4"
       d="m 968.8,347.2 c 0,-5.4 -4.4,-9.7 -9.7,-9.7 -5.4,0 -9.7,4.4 -9.7,9.7 0,5.4 4.4,9.7 9.7,9.7 5.3,0 9.7,-4.4 9.7,-9.7 z"
       style="fill:#69502f"
       id="path368" />
    <path
       class="st4"
       d="m 897.9,338.5 -16.7,9.7 c -2,1.2 -4.6,0.5 -5.7,-1.5 -1.2,-2 -0.5,-4.6 1.5,-5.7 l 16.7,-9.7 c 2,-1.2 4.6,-0.5 5.7,1.5 1.2,1.9 0.5,4.5 -1.5,5.7 z"
       style="fill:#69502f"
       id="path370" />
    <path
       class="st4"
       d="m 965.3,348.1 -16.7,-9.7 c -2,-1.2 -2.7,-3.7 -1.5,-5.7 1.2,-2 3.7,-2.7 5.7,-1.5 l 16.7,9.7 c 2,1.2 2.7,3.7 1.5,5.7 -1.1,2 -3.7,2.7 -5.7,1.5 z"
       style="fill:#69502f"
       id="path372" />
  </g>
</svg>
