<?xml version="1.0" encoding="UTF-8" standalone="no"?>
<svg
   xmlns:dc="http://purl.org/dc/elements/1.1/"
   xmlns:cc="http://creativecommons.org/ns#"
   xmlns:rdf="http://www.w3.org/1999/02/22-rdf-syntax-ns#"
   xmlns:svg="http://www.w3.org/2000/svg"
   xmlns="http://www.w3.org/2000/svg"
   xmlns:sodipodi="http://sodipodi.sourceforge.net/DTD/sodipodi-0.dtd"
   xmlns:inkscape="http://www.inkscape.org/namespaces/inkscape"
   inkscape:version="1.0 (4035a4f, 2020-05-01)"
   sodipodi:docname="duck_angry copy.svg"
   height="53.98mm"
   width="85.599998mm"
   y="0px"
   x="0px"
   version="1.1"
   viewBox="0 0 323.52758 204.0189"
   id="master-artboard">
  <metadata
     id="metadata3084">
    <rdf:RDF>
      <cc:Work
         rdf:about="">
        <dc:format>image/svg+xml</dc:format>
        <dc:type
           rdf:resource="http://purl.org/dc/dcmitype/StillImage" />
        <dc:title />
      </cc:Work>
    </rdf:RDF>
  </metadata>
  <defs
     id="defs3082" />
  <sodipodi:namedview
     inkscape:current-layer="g3069"
     inkscape:window-maximized="0"
     inkscape:window-y="322"
     inkscape:window-x="398"
     inkscape:cy="158.68262"
     inkscape:cx="265.26617"
     inkscape:zoom="1.832815"
     width="296mm"
     units="mm"
     showgrid="false"
     id="namedview3080"
     inkscape:window-height="775"
     inkscape:window-width="1440"
     inkscape:pageshadow="2"
     inkscape:pageopacity="0"
     guidetolerance="10"
     gridtolerance="10"
     objecttolerance="10"
     borderopacity="1"
     bordercolor="#666666"
     pagecolor="#ffffff"
     inkscape:document-rotation="0" />
  <g
     transform="translate(-17.898944,-41.525549)"
     id="g3069">
    <path
       id="path3047"
       style="fill:#ffc20e"
       d="m 248.9,182 c 0,25.5 -17.8,43.8 -76,43.8 -58.2,0 -76,-18.3 -76,-43.8 0,-33.3 27.2,-54.2 76,-54.2 48.8,0 76,21 76,54.2 z"
       class="st0" />
    <path
       id="path3049"
       style="fill:#ffd000"
       d="m 239,113.8 c 0,30.8 -28.4,46.5 -66.2,46.5 -37.8,0 -66.2,-15.7 -66.2,-46.5 0,-35.8 31.7,-59 66.2,-59 34.5,0.1 66.2,23.3 66.2,59 z"
       class="st1" />
    <g
       id="g3055">
      <path
         id="path3051"
         style="fill:#ffd000"
         d="m 255.3,169.9 c 2.3,13 -2.9,25 -9.6,26.2 -7,1.2 -11.6,-9.1 -13.9,-22.1 -2.3,-13 0.5,-20.5 7.5,-21.7 8.4,-1.5 13.9,5.8 16,17.6 z"
         class="st1" />
      <path
         id="path3053"
         style="fill:#ffd000"
         d="m 90.4,169.9 c -2.3,13 2.9,25 9.6,26.2 7,1.2 11.6,-9.1 13.9,-22.1 2.3,-13 -0.5,-20.5 -7.5,-21.7 -8.4,-1.5 -13.9,5.8 -16,17.6 z"
         class="st1" />
    </g>
    <g
       id="g3067">
      <path
         id="path3063"
         style="fill:#f47920"
         d="m 180.1,108.3 c 0.8,0.8 0.7,1.5 0.1,2.1 -0.5,0.5 -1.3,0.6 -2.1,-0.1 -0.8,-0.8 -0.7,-2.6 -0.7,-2.6 0,0 1.9,-0.1 2.7,0.6 z"
         class="st3" />
      <path
         id="path3065"
         style="fill:#f47920"
         d="m 167.5,110.2 c -0.8,0.8 -1.5,0.7 -2.1,0.1 -0.5,-0.5 -0.6,-1.3 0.1,-2.1 0.8,-0.8 2.6,-0.7 2.6,-0.7 0,0 0.2,2 -0.6,2.7 z"
         class="st3" />
    </g>
    <path
       class="st2"
       d="m 172.9,139.9 c -19.3,0 -33.5,-8.2 -33.5,-12.6 0,-4.4 5.7,-4.5 12.6,-10.1 6.8,-5.6 12.3,-13.9 20.9,-13.9 8.6,0 14.1,8.3 20.9,13.9 6.8,5.6 12.6,5.7 12.6,10.1 0,4.4 -14.2,12.6 -33.5,12.6 z"
       style="fill:#f7941e"
       id="path154" />
    <path
       class="st3"
       d="m 172.9,123 c -7.6,0 -13,1.6 -19.6,3.9 -4.7,1.6 -12.6,-0.3 -12.6,0.3 0,1.7 8.6,2.5 14.4,1 5.7,-1.5 10,-2.7 17.8,-2.7 8.1,0 12.2,1.3 17.8,2.7 5.7,1.5 14.4,0.7 14.4,-1 0,-0.6 -7.9,1.3 -12.6,-0.3 -6.7,-2.3 -12,-3.9 -19.6,-3.9 z"
       style="fill:#f47920"
       id="path156" />
    <path
       class="st3"
       d="m 180.1,108.3 c 0.8,0.8 0.7,1.5 0.1,2.1 -0.5,0.5 -1.3,0.6 -2.1,-0.1 -0.8,-0.8 -0.7,-2.6 -0.7,-2.6 0,0 1.9,-0.2 2.7,0.6 z"
       style="fill:#f47920"
       id="path158" />
    <path
       class="st3"
       d="m 167.5,110.2 c -0.8,0.8 -1.5,0.7 -2.1,0.1 -0.5,-0.5 -0.6,-1.3 0.1,-2.1 0.8,-0.8 2.6,-0.7 2.6,-0.7 0,0 0.2,1.9 -0.6,2.7 z"
       style="fill:#f47920"
       id="path160" />
  </g>
  <g
     transform="translate(-17.898944,-41.525549)"
     id="g3077">
    <g
       id="g3075">
      <path
         id="path3071"
         style="fill:#69502f"
         d="m 147.7,98.1 c 0,-5.4 -4.4,-9.7 -9.7,-9.7 -5.4,0 -9.7,4.4 -9.7,9.7 0,5.4 4.4,9.7 9.7,9.7 5.4,0.1 9.7,-4.3 9.7,-9.7 z"
         class="st4" />
      <path
         id="path3073"
         style="fill:#69502f"
         d="m 219.3,98.1 c 0,-5.4 -4.4,-9.7 -9.7,-9.7 -5.4,0 -9.7,4.4 -9.7,9.7 0,5.4 4.4,9.7 9.7,9.7 5.4,0.1 9.7,-4.3 9.7,-9.7 z"
         class="st4" />
    </g>
  </g>
  <path
     id="path322"
     style="fill:#69502f"
     d="m 129.80106,56.574451 c 0,-5.4 -4.4,-9.7 -9.7,-9.7 -5.4,0 -9.7,4.4 -9.7,9.7 0,5.4 4.4,9.7 9.7,9.7 5.3,0 9.7,-4.3 9.7,-9.7 z"
     class="st4" />
  <path
     id="path324"
     style="fill:#69502f"
     d="m 201.40106,56.574451 c 0,-5.4 -4.4,-9.7 -9.7,-9.7 -5.4,0 -9.7,4.4 -9.7,9.7 0,5.4 4.4,9.7 9.7,9.7 5.3,0 9.7,-4.3 9.7,-9.7 z"
     class="st4" />
  <path
     id="path326"
     style="fill:#69502f"
     d="m 126.30106,57.574451 -16.7,-9.7 c -2,-1.2 -2.7,-3.7 -1.5,-5.7 1.2,-2 3.7,-2.7 5.7,-1.5 l 16.7,9.7 c 2,1.2 2.7,3.7 1.5,5.7 -1.1,1.9 -3.7,2.6 -5.7,1.5 z"
     class="st4" />
  <path
     id="path328"
     style="fill:#69502f"
     d="m 202.10106,47.874451 -16.7,9.7 c -2,1.2 -4.6,0.5 -5.7,-1.5 -1.2,-2 -0.5,-4.6 1.5,-5.7 l 16.7,-9.7 c 2,-1.2 4.6,-0.5 5.7,1.5 1.2,2 0.5,4.5 -1.5,5.7 z"
     class="st4" />
</svg>
